<svg xmlns="http://www.w3.org/2000/svg" xmlns:xlink="http://www.w3.org/1999/xlink" version="1.1" x="0px" y="0px" viewBox="0 0 64 64" enable-background="new 0 0 64 64" xml:space="preserve"><g><g><path fill-rule="evenodd" clip-rule="evenodd" d="M37.103,29.036c1.505-0.064,4.117,0.705,3.84-1.44    c-0.865-1.112-3.451-0.755-3.6-1.92c-1.925,1.157-7.199-1.122-6.96,3.12C32.209,30.493,34.368,29.153,37.103,29.036z"></path><path fill-rule="evenodd" clip-rule="evenodd" d="M51.022,9.836c-1.234-1.269-5.248-0.96-6.96-0.96    c-2.595,2.206-3.381,6.219-4.32,10.08c-0.848,0.466-0.924,0.456-0.72,1.68c-1.36-0.255-4.056-0.59-5.04,0.24    c0.553-1.136-1.206-0.127-2.16-1.2c-1.22,0.023-1.415,0.536-2.88,0.72c0.214-1.471-0.782,0.607-0.96-1.44    c-0.519-0.201-0.818-0.622-1.68-0.48c0.208-1.521-1.245-2.298-2.4-3.12c1.157-1.643,2.336-3.264,4.08-4.32    c-0.895-1.908,0.793-2.071-1.2-2.88c0-0.08,0-0.16,0-0.24c-0.56,0-1.12,0-1.68,0c-0.876,0.358-2.224,0.753-3.12,0.72    c0.004-0.396,0.666-0.134,0.72-0.48c-0.187-0.054-0.474-0.007-0.48-0.24c-1.92,0-3.84,0-5.76,0c-1.113,0.247-1.887,0.833-2.4,1.68    c0,3.52,0,7.04,0,10.56c1.703,3.838,5.318-0.62,6.72-2.64c1.171,0.749,2.182,1.658,3.12,2.64c-2.392,0.836-1.516,4.946-0.72,8.16    c1.584,6.397,5.342,12.825,11.04,14.88c0.164,4.348,0.221,7.102,0.24,11.04c-2.19,0.85-6.769-0.688-7.92,1.199    c-0.336,1.297,0.648,1.272,0.72,2.16c3.486-0.729,8.611-0.268,12.96-0.239c1.867,0.012,5.13,0.329,4.8-1.921    c-1.724-1.076-5.408-0.191-7.92-0.479c0.191-4.34-0.181-7.854,0.24-11.76c7.658-3.462,10.65-11.59,11.76-21.6    c-1.625-1.015-5.044-0.236-7.44-0.48c0.463-2.99,2.141-6.811,3.12-10.08C46.809,10.582,50.84,12.133,51.022,9.836z M17.422,17.036    c-0.633-1.527-0.458-3.861-0.48-6c2.101-0.249,3.474,1.045,4.08,0.96C20.565,13.461,18.415,15.306,17.422,17.036z M46.702,23.276    c-0.526,5.988-4.742,17.903-10.8,17.76c-2.669-0.063-3.842-3.124-5.28-4.32c0.279-0.039,0.427,0.053,0.48,0.24    c-0.351-0.626-0.38-2.075-1.92-2.4c0.569-1.096-0.43-3.24-2.16-4.32c0.954-1.906-1.618-4.844-0.96-6.72    C32.638,24.015,39.2,23.503,46.702,23.276z"></path></g></g></svg>